<svg xmlns="http://www.w3.org/2000/svg" width="70" height="70" viewBox="0 0 70 70">
    <g fill="#FFF" fill-rule="evenodd">
        <path d="M30.148 19.718l1.614 1.206a.997.997 0 0 0 1.18 0l2.558-1.912 2.558 1.912a.997.997 0 0 0 1.18 0l1.614-1.206v5.517H30.148v-5.517zm12.057-2.63a1 1 0 0 0-.999.105l-2.558 1.912-2.558-1.912a.997.997 0 0 0-1.18 0l-2.558 1.912-2.558-1.912a.998.998 0 0 0-1-.106.88.88 0 0 0-.535.796v7.352h-.315c-.521 0-.944.395-.944.883 0 .487.423.882.944.882h15.112c.521 0 .944-.395.944-.882 0-.488-.423-.883-.944-.883h-.315v-7.353a.88.88 0 0 0-.536-.795zM44.074 37H24.926c-.511 0-.926.448-.926 1s.415 1 .926 1h19.148c.511 0 .926-.448.926-1s-.415-1-.926-1M43.622 32.486h-18.66a.903.903 0 1 0 0 1.806h18.66a.903.903 0 1 0 0-1.806"/>
        <path d="M62.176 45.877a.903.903 0 0 0-.856-.072l-5.157 2.25-5.158-2.25a.904.904 0 0 0-.722 0l-5.157 2.25-5.156-2.25a.904.904 0 0 0-.723 0l-5.156 2.25-5.156-2.25a.903.903 0 0 0-1.265.827v7.826a2.712 2.712 0 0 1-2.708 2.708 2.712 2.712 0 0 1-2.71-2.708.903.903 0 1 0-1.805 0 4.52 4.52 0 0 0 4.515 4.514 4.52 4.52 0 0 0 4.514-4.514V48.01l4.254 1.857c.23.1.492.1.722 0l5.157-2.25 5.156 2.25c.23.1.492.1.723 0l5.156-2.25 5.158 2.25c.23.1.492.1.722 0l4.254-1.857v6.447a6.328 6.328 0 0 1-6.32 6.32H24.962a6.328 6.328 0 0 1-6.32-6.32V14.126a4.52 4.52 0 0 0-4.516-4.514 4.52 4.52 0 0 0-4.514 4.514v3.612a.903.903 0 1 0 1.806 0v-3.612a2.712 2.712 0 0 1 2.708-2.708 2.712 2.712 0 0 1 2.71 2.708v8.165l-4.054-1.769a.904.904 0 0 0-.723 0L7.806 22.38v-8.253a6.328 6.328 0 0 1 6.32-6.32h29.496a6.328 6.328 0 0 1 6.321 6.32v28.982a.903.903 0 1 0 1.806 0V14.126c0-4.48-3.646-8.126-8.127-8.126H14.126C9.646 6 6 9.645 6 14.126v9.632a.903.903 0 0 0 1.264.827l5.157-2.25 4.414 1.927v30.196c0 4.48 3.646 8.126 8.127 8.126h29.496c4.48 0 8.126-3.645 8.126-8.126v-7.826a.903.903 0 0 0-.408-.755"/>
    </g>
</svg>
