<svg xmlns="http://www.w3.org/2000/svg" width="70" height="70" viewBox="0 0 70 70">
    <path fill="#FFF" fill-rule="evenodd" d="M60 63h4V36h-4v27zM8 63h4V36H8v27zm5.566-51.188v1.906h-2.783a.94.94 0 0 0-.928.953v17.47a.94.94 0 0 0 .928.953.94.94 0 0 0 .928-.953V15.624h1.855v16.2a.94.94 0 0 0 .927.952.94.94 0 0 0 .928-.952V8H31.5c1.535 0 2.783 1.283 2.783 2.859v20.965a.94.94 0 0 0 .928.952.94.94 0 0 0 .927-.952V10.859C36.138 9.283 37.386 8 38.921 8H55v27H8V11.812h5.566zM52 63h5V36h-5v27zM41 36v2.5c0 1.378-1.346 2.5-3 2.5h-4c-1.654 0-3-1.122-3-2.5V36h10zm-21 0h8.438v2.859c0 2.627 2.102 4.765 4.687 4.765h3.75c2.585 0 4.687-2.138 4.687-4.765V36H50v27H20V36zm-7 27h5V36h-5v27zm50-52v23h-5V14.78h1.667v16.384c0 .522.373.946.833.946.46 0 .833-.424.833-.946V13.836c0-.522-.373-.946-.833-.946H58V11h5zm1.059-1.234h-6.59V6.941A.941.941 0 0 0 56.526 6H39.266A4.704 4.704 0 0 0 35.5 7.886 4.704 4.704 0 0 0 31.734 6h-17.26a.941.941 0 0 0-.942.941v2.825h-6.59a.941.941 0 0 0-.942.941V64.06c0 .52.422.941.941.941H64.06c.52 0 .941-.421.941-.941V10.707a.941.941 0 0 0-.941-.941z"/>
</svg>
