<svg xmlns="http://www.w3.org/2000/svg" width="70" height="70" viewBox="0 0 70 70">
    <g fill="#FFAF32" fill-rule="evenodd">
        <path d="M39.23 21.867a1.944 1.944 0 1 1 0 3.888 1.944 1.944 0 0 1 0-3.888M24.613 21.867a1.944 1.944 0 1 1 0 3.888 1.944 1.944 0 0 1 0-3.888"/>
        <path d="M50.61 63.654h-5.05V47.671a10.356 10.356 0 0 1 4.928 7.287l.007.044c.024.16.045.322.061.485l.001.008a10.287 10.287 0 0 1 .042.577c.007.158.012.316.012.476v7.106zm-7.024 0H20.794V46.76c.369-.125.746-.23 1.133-.314l9.459 13.276a.987.987 0 0 0 .804.415c.03 0 .058-.004.086-.006.011 0 .022 0 .033-.002l.069-.012.047-.009c.01-.002.019-.006.029-.009a.986.986 0 0 0 .54-.377l9.46-13.276c.386.083.763.19 1.132.314v16.894zM28.04 46.214h1.232l-.392.535a.987.987 0 0 0-.06 1.074l1.349 2.356-.78 3.336-5.203-7.302h3.854zm-9.312-16.15c-.06-.202-.115-.406-.165-.61-.665-2.692-.402-5.609-.402-8.362v-2.719c0-.414.018-.827.054-1.239a4.03 4.03 0 0 0 2.754.436c.436-.089.856-.25 1.238-.477.093-.055 1.039-.735.973-.81a3.983 3.983 0 0 0 6.007 0 3.983 3.983 0 0 0 6.006 0 3.983 3.983 0 0 0 6.007 0c-.062.07.842.731.931.785.365.222.765.386 1.182.48.958.22 1.995.07 2.851-.414.036.412.055.826.055 1.24v2.718c0 4.875.221 9.673-3.006 13.685-2.444 3.038-6.152 4.98-10.033 5.31-2.46.21-4.958-.24-7.174-1.333-3.506-1.729-6.172-4.954-7.278-8.69zM23.36 7.471a14.057 14.057 0 0 1 8.83-3.127c3.208 0 6.344 1.11 8.83 3.127a14.091 14.091 0 0 1 4.765 7.433l-.012.016c-1.17 1.454-3.586.593-3.586-1.263a.988.988 0 1 0-1.975 0 2.018 2.018 0 0 1-2.016 2.016 2.018 2.018 0 0 1-2.016-2.016.987.987 0 1 0-1.975 0 2.015 2.015 0 0 1-4.03 0 .988.988 0 1 0-1.976 0 2.018 2.018 0 0 1-2.016 2.016 2.018 2.018 0 0 1-2.016-2.015.988.988 0 1 0-1.975 0 2.015 2.015 0 0 1-.59 1.424c-.825.825-2.266.745-2.996-.162l-.012-.016a14.093 14.093 0 0 1 4.766-7.433zm9.8 36.766h-4.133v-2.383a16.154 16.154 0 0 0 6.325 0v2.383h-2.191zm.304 11.42l-1.274 1.789-1.274-1.79 1.086-4.643h.375l1.087 4.644zm-.876-6.62h-.796l-.94-1.64.868-1.184h.94l.867 1.184-.939 1.64zm7.606-2.825l-5.203 7.303-.78-3.337 1.349-2.356a.987.987 0 0 0-.06-1.074l-.393-.535h5.087zM18.82 63.654h-5.05v-7.106a10.457 10.457 0 0 1 .017-.58c.009-.159.02-.317.036-.474l.001-.008c.017-.162.038-.324.062-.485l.006-.043c.48-3.095 2.34-5.74 4.928-7.287v15.983zm-5.05-37.767c0-1.59 1-2.987 2.417-3.556 0 2.367-.15 4.773.337 7.105.01.045.017.089.027.133a3.835 3.835 0 0 1-2.781-3.682zm34.088 3.55c.478-2.303.337-4.677.337-7.015 0-.006.005-.088 0-.09 1.416.568 2.417 1.966 2.417 3.555a3.835 3.835 0 0 1-2.781 3.682c.01-.044.017-.088.027-.133zm4.657 26.588c-.121-1.74-.44-3.444-1.263-5.065-1.297-2.553-3.514-4.579-6.139-5.71-2.523-1.086-5.097-1.012-7.785-1.012v-2.916a16.085 16.085 0 0 0 9.89-9.65 5.81 5.81 0 0 0 5.369-5.785c0-2.672-1.868-4.987-4.392-5.626v-1.888c0-1.166-.127-2.333-.378-3.463l-.008-.037a16.064 16.064 0 0 0-5.544-8.935A16.039 16.039 0 0 0 32.19 2.37c-3.66 0-7.238 1.267-10.075 3.568a16.067 16.067 0 0 0-5.544 8.937l-.007.03a16.074 16.074 0 0 0-.378 3.468v1.889c-2.524.638-4.392 2.953-4.392 5.625a5.81 5.81 0 0 0 5.369 5.785 16.084 16.084 0 0 0 9.89 9.65v2.917c-1.951 0-3.915-.12-5.825.35-2.275.562-4.397 1.758-6.02 3.452-2.252 2.35-3.51 5.62-3.434 8.873.054 2.39.02 4.785.02 7.177v.55c0 .546.442.988.987.988h38.817a.987.987 0 0 0 .988-.987V59.95c0-1.317.018-2.631-.072-3.926z"/>
        <path d="M36.041 34.98a.772.772 0 1 0-.9-1.256c-.724.519-2.052.841-3.466.841-1.414 0-2.742-.322-3.467-.842a.772.772 0 0 0-.9 1.256c.988.708 2.62 1.131 4.367 1.131 1.746 0 3.378-.422 4.366-1.13"/>
    </g>
</svg>
