<svg xmlns="http://www.w3.org/2000/svg" width="70" height="70" viewBox="0 0 70 70">
    <g fill="#FFAF32" fill-rule="evenodd">
        <path d="M37.556 39.41H25.434c-.324 0-.587.392-.587.876 0 .483.263.875.587.875h12.122c.324 0 .587-.392.587-.875 0-.484-.263-.875-.587-.875M43.81 32.387H25.723a.875.875 0 1 0 0 1.75h18.089a.875.875 0 1 0 0-1.75M43.81 25.363H25.723a.875.875 0 1 0 0 1.75h18.089a.875.875 0 1 0 0-1.75M43.81 18.34H25.723a.875.875 0 1 0 0 1.75h18.089a.875.875 0 1 0 0-1.75"/>
        <path d="M61.795 45.996a.875.875 0 0 0-.83-.07l-4.999 2.181-4.999-2.181a.876.876 0 0 0-.7 0l-4.998 2.181-4.999-2.181a.876.876 0 0 0-.7 0l-4.998 2.181-4.999-2.181a.875.875 0 0 0-1.225.802v7.586a2.629 2.629 0 0 1-2.626 2.625 2.629 2.629 0 0 1-2.625-2.625.875.875 0 1 0-1.75 0 4.381 4.381 0 0 0 4.375 4.376 4.381 4.381 0 0 0 4.377-4.376v-6.249l4.123 1.8a.876.876 0 0 0 .7 0l4.998-2.182 4.998 2.181a.876.876 0 0 0 .7 0l5-2.18 4.998 2.18a.875.875 0 0 0 .7 0l4.124-1.8v6.25a6.134 6.134 0 0 1-6.126 6.126H25.722a6.134 6.134 0 0 1-6.126-6.126V15.219a4.381 4.381 0 0 0-4.377-4.376 4.381 4.381 0 0 0-4.376 4.376v3.501a.875.875 0 1 0 1.75 0v-3.5a2.629 2.629 0 0 1 2.626-2.626 2.629 2.629 0 0 1 2.626 2.625v7.915l-3.929-1.715a.876.876 0 0 0-.7 0l-4.123 1.8v-8a6.134 6.134 0 0 1 6.126-6.126h28.592a6.134 6.134 0 0 1 6.126 6.126v28.093a.875.875 0 1 0 1.75 0V15.22c0-4.343-3.533-7.877-7.876-7.877H15.219c-4.343 0-7.877 3.534-7.877 7.877v9.336a.875.875 0 0 0 1.226.803l4.998-2.182 4.28 1.868v29.27c0 4.343 3.533 7.877 7.876 7.877h28.592c4.343 0 7.877-3.534 7.877-7.877v-7.586a.875.875 0 0 0-.396-.732"/>
    </g>
</svg>
