<svg xmlns="http://www.w3.org/2000/svg" width="70" height="70" viewBox="0 0 70 70">
    <g fill="#FFF" fill-rule="evenodd">
        <path d="M59.825 66.29h6.466v-2.155h-6.466v2.156zm-56.752 0h6.465V46.895H3.073v19.397zm8.62 0h2.155V46.895h-2.155v19.397zm4.31 0H44.74V46.895H16.004v19.397zm34.124-8.62c-.595 0-1.078.482-1.078 1.078v7.543h-2.155V46.894h2.155v7.543a1.077 1.077 0 1 0 2.156 0v-7.543h6.465v19.397h-6.465v-7.543c0-.596-.483-1.078-1.078-1.078zm9.698-8.62h6.466v-2.156h-6.466v2.155zm7.543 2.155c.595 0 1.078-.483 1.078-1.078v-4.31c0-.596-.483-1.078-1.078-1.078H1.995c-.595 0-1.078.482-1.078 1.078v21.551c0 .595.483 1.078 1.078 1.078h65.373c.595 0 1.078-.483 1.078-1.078v-4.31c0-.595-.483-1.078-1.078-1.078h-7.543v-2.155h7.543a1.077 1.077 0 1 0 0-2.155h-7.543v-2.155h7.543a1.077 1.077 0 1 0 0-2.155h-7.543v-2.155h7.543zM34.682 24.624a3.596 3.596 0 0 1 3.592 3.592 3.596 3.596 0 0 1-3.592 3.592 3.596 3.596 0 0 1-3.592-3.592 3.596 3.596 0 0 1 3.592-3.592zm0 9.34a5.754 5.754 0 0 0 5.747-5.748 5.754 5.754 0 0 0-5.747-5.747 5.754 5.754 0 0 0-5.747 5.747 5.754 5.754 0 0 0 5.747 5.747z"/>
        <path d="M17.14 18.832a5.034 5.034 0 0 0 4.97 5.792 5.035 5.035 0 0 0 5.029-5.028c0-1.04-.314-2.032-.896-2.867L34.682 3.95 43.12 16.73a4.992 4.992 0 0 0-.895 2.867 5.035 5.035 0 0 0 5.028 5.028 5.034 5.034 0 0 0 4.971-5.792 3007 3007 0 0 1 6.034-4.2l-4.205 21.486h-31.01a1.078 1.078 0 0 0 0 2.156h31.894a1.08 1.08 0 0 1 1.08 1.077c0 .594-.483 1.078-1.077 1.078H14.423a1.079 1.079 0 0 1 0-2.155h4.31a1.078 1.078 0 0 0 0-2.156H15.31l-4.204-21.486c1.663 1.155 4.004 2.783 6.033 4.2zm-.617-7.483c1.022-1.135 2.498-1.76 4.156-1.76h7.697l-4.371 6.619c-.282.427-.225.994.137 1.355.542.543.841 1.265.841 2.032a2.877 2.877 0 0 1-2.873 2.874 2.877 2.877 0 0 1-2.731-3.768 1.078 1.078 0 0 0-.407-1.218 2040.53 2040.53 0 0 0-3.71-2.587c-.053-1.33.388-2.578 1.26-3.547zm-3.359 25.025a3.238 3.238 0 0 0-1.974 2.977 3.236 3.236 0 0 0 3.233 3.233H54.94a3.236 3.236 0 0 0 3.233-3.233 3.238 3.238 0 0 0-1.974-2.977l4.684-23.935a1.078 1.078 0 0 0-1.672-1.093c-.025.018-1.31.908-3.045 2.114a7.022 7.022 0 0 0-1.718-3.554c-1.415-1.571-3.514-2.472-5.758-2.472h-4.54a1.077 1.077 0 1 0 0 2.155h4.54c1.658 0 3.135.625 4.157 1.76.872.968 1.312 2.215 1.261 3.542l-3.717 2.592c-.389.273-.554.767-.406 1.219a2.874 2.874 0 1 1-4.764-1.138c.362-.362.42-.929.138-1.356L35.58 1.4a1.078 1.078 0 0 0-1.798 0l-3.984 6.033h-9.12c-2.244 0-4.342.9-5.758 2.472a7.021 7.021 0 0 0-1.719 3.558l-3.05-2.118a1.078 1.078 0 0 0-1.671 1.093l4.683 23.935z"/>
    </g>
</svg>
