<svg xmlns="http://www.w3.org/2000/svg" width="195" height="36" viewBox="0 0 195 36">
    <g fill="#FFAF32" fill-rule="evenodd">
        <path d="M31.603 13.94c.741-.68 1.112-1.664 1.112-2.952 0-1.24-.371-2.193-1.112-2.861-.74-.668-1.792-1.002-3.152-1.002h-3.873a.355.355 0 0 0-.355.356v7.124c0 .197.159.356.355.356h3.873c1.36 0 2.411-.34 3.152-1.02m5.785-10.069c1.872 1.632 2.808 3.927 2.808 6.886 0 3.137-.936 5.572-2.808 7.304-1.872 1.732-4.503 2.599-7.892 2.599H25.29a.355.355 0 0 0-.356.356v6.412c0 .197-.16.356-.356.356h-6.412a.356.356 0 0 1-.356-.356V1.78c0-.197.159-.356.356-.356h11.329c3.389 0 6.02.816 7.892 2.447M59.955 9.361c1.35 1.399 2.026 3.283 2.026 5.655v12.412a.355.355 0 0 1-.355.357h-6.413a.356.356 0 0 1-.356-.357V16.986c0-1.141-.293-2.042-.882-2.7-.588-.657-1.397-.987-2.428-.987-1.176.025-2.105.454-2.788 1.286-.684.831-1.026 1.917-1.026 3.258v9.585a.355.355 0 0 1-.356.357h-5.7a.356.356 0 0 1-.356-.357V.356c0-.197.16-.356.356-.356h5.7c.197 0 .356.16.356.356v9.366c0 .338.42.478.635.218a7.049 7.049 0 0 1 2.188-1.777c1.15-.599 2.469-.899 3.96-.899 2.274 0 4.086.7 5.439 2.097M79.316 21.16c1.012-.618 1.802-1.495 2.37-2.63.568-1.135.852-2.431.852-3.888 0-1.482-.302-2.79-.907-3.925-.606-1.136-1.439-2.019-2.5-2.649-1.062-.63-2.271-.944-3.63-.944H71.6a.356.356 0 0 0-.356.357v14.248c0 .197.16.357.356.357h4.236c1.308 0 2.469-.31 3.481-.927m4.186-18.08c2.118 1.104 3.766 2.651 4.944 4.645 1.178 1.992 1.767 4.28 1.767 6.862s-.596 4.876-1.786 6.882c-1.19 2.005-2.87 3.56-5.039 4.663-2.168 1.103-4.657 1.654-7.464 1.654H65.187a.356.356 0 0 1-.356-.356V1.78c0-.197.16-.356.356-.356h11c2.758 0 5.195.551 7.315 1.654M101.521 1.425h18.524c.197 0 .356.16.356.356v3.562a.356.356 0 0 1-.356.356h-13.537a.356.356 0 0 0-.356.357v6.412c0 .196.16.356.356.356h12.112c.197 0 .356.16.356.356v3.562a.356.356 0 0 1-.356.356h-12.112a.356.356 0 0 0-.356.357v5.699c0 .197.16.356.356.356h13.537c.197 0 .356.16.356.356v3.563a.356.356 0 0 1-.356.356h-18.524a.356.356 0 0 1-.356-.356V1.78c0-.197.16-.356.356-.356M132.946 11.903c-1.03-.323-1.98-.485-2.849-.485-.819 0-1.47.143-1.954.428-.485.286-.727.726-.727 1.322 0 .621.304 1.098.913 1.434.608.336 1.57.689 2.886 1.06 1.39.424 2.532.84 3.425 1.248a6.455 6.455 0 0 1 2.327 1.826c.658.807.987 1.868.987 3.183 0 1.936-.744 3.426-2.234 4.469-1.49 1.042-3.364 1.564-5.623 1.564-1.54 0-3.04-.243-4.506-.726-1.363-.451-2.532-1.079-3.508-1.884a.362.362 0 0 1-.09-.438l1.354-2.737c.1-.203.36-.256.54-.117.82.637 1.772 1.147 2.86 1.527 1.24.433 2.42.65 3.536.65.716 0 1.315-.098 1.8-.297.8-.329 1.299-1.218 1.083-2.056-.117-.455-.408-.812-.872-1.072-.62-.347-1.626-.732-3.016-1.155-1.34-.396-2.433-.787-3.277-1.172-.844-.384-1.577-.968-2.197-1.75-.62-.782-.93-1.807-.93-3.073 0-1.96.713-3.456 2.14-4.487 1.428-1.029 3.221-1.545 5.381-1.545 1.316 0 2.613.186 3.892.559 1.164.339 2.209.801 3.137 1.388a.36.36 0 0 1 .125.465l-1.44 2.879a.352.352 0 0 1-.489.146 14.226 14.226 0 0 0-2.674-1.154M149.557 11.903c-1.03-.323-1.98-.485-2.848-.485-.82 0-1.471.143-1.955.428-.485.286-.727.726-.727 1.322 0 .621.304 1.098.913 1.434.608.336 1.57.689 2.886 1.06 1.39.424 2.532.84 3.425 1.248a6.455 6.455 0 0 1 2.328 1.826c.657.807.987 1.868.987 3.183 0 1.936-.745 3.426-2.235 4.469-1.49 1.042-3.364 1.564-5.622 1.564-1.54 0-3.042-.243-4.506-.726-1.363-.451-2.532-1.079-3.508-1.884a.362.362 0 0 1-.09-.438l1.354-2.737c.1-.203.36-.256.539-.117.82.637 1.772 1.147 2.86 1.527 1.24.433 2.42.65 3.537.65.715 0 1.314-.098 1.8-.297.8-.329 1.298-1.218 1.082-2.056-.117-.455-.407-.812-.872-1.072-.62-.347-1.626-.732-3.015-1.155-1.341-.396-2.433-.787-3.278-1.172-.844-.384-1.576-.968-2.197-1.75-.62-.782-.93-1.807-.93-3.073 0-1.96.713-3.456 2.14-4.487 1.428-1.029 3.222-1.545 5.382-1.545 1.315 0 2.612.186 3.89.559 1.165.339 2.21.801 3.138 1.388a.36.36 0 0 1 .125.465l-1.44 2.879a.352.352 0 0 1-.488.146 14.226 14.226 0 0 0-2.675-1.154M167.17 23.462c.994-.657 1.552-1.47 1.676-2.44v-1.43a.356.356 0 0 0-.355-.357h-4.672c-1.29 0-2.24.193-2.848.577-.609.386-.913 1.013-.913 1.881 0 .845.317 1.515.95 2.011.633.497 1.496.745 2.588.745 1.39 0 2.582-.33 3.575-.987m1.675 3.966v-1.215a.351.351 0 0 0-.592-.257 7.109 7.109 0 0 1-2.235 1.377c-1.152.452-2.474.678-3.966.678-1.466 0-2.755-.27-3.868-.811-1.112-.54-1.97-1.288-2.571-2.245-.603-.956-.903-2.024-.903-3.206 0-1.888.693-3.364 2.081-4.434 1.387-1.068 3.35-1.616 5.89-1.642h6.164v-.52c0-1.168-.402-2.073-1.207-2.718-.806-.646-1.974-.969-3.507-.969-1.878 0-3.838.562-5.881 1.686a.355.355 0 0 1-.484-.136l-1.485-2.719a.362.362 0 0 1 .152-.492c1.508-.78 2.885-1.35 4.134-1.708 1.337-.385 2.902-.578 4.694-.578 2.7 0 4.798.621 6.292 1.861 1.494 1.243 2.253 2.98 2.28 5.214l.038 12.834a.356.356 0 0 1-.356.357h-4.313a.356.356 0 0 1-.357-.357M182.895 33.958c-1.154.831-2.526 1.248-4.114 1.248-.97 0-1.844-.143-2.626-.429-.699-.255-1.392-.644-2.08-1.165a.364.364 0 0 1-.095-.464l1.74-3.074a.358.358 0 0 1 .514-.116c.35.234.677.413.982.538.397.16.82.241 1.266.241 1.316 0 2.284-.67 2.905-2.01l.53-1.162a.356.356 0 0 0 .005-.286L173.96 8.33a.356.356 0 0 1 .329-.493h4.248c.147 0 .279.09.332.226l5.225 13.373c.12.306.556.3.667-.01l4.77-13.353a.358.358 0 0 1 .336-.236h4.102c.251 0 .424.253.33.488l-8.742 21.928c-.62 1.639-1.508 2.874-2.662 3.705M9.517 9.262H7.039c-.3-.134-.542-.375-.542-.674 0-.299.243-.541.542-.751h2.478c.3.21.542.452.542.751s-.243.54-.542.674m0-2.138H7.039c-.3-.133-.542-.374-.542-.673 0-.3.243-.541.542-.752h2.478c.3.21.542.453.542.752s-.243.54-.542.673M8.72 22.798H7.665a.541.541 0 0 1-.54-.542v-7.465c0-.3.242-.542.541-.542H8.72c.299 0 .542.243.542.542v7.465c0 .299-.243.542-.542.542M5.7 2.679v24.564c0 .3.242.542.54.542h3.905c.299 0 .542-.243.542-.542V2.679c0-.3-.243-.542-.542-.542H6.241c-.299 0-.541.243-.541.542"/>
        <path d="M16.391 7.067l-2.424-.24a.53.53 0 1 1 .104-1.052l2.425.24a.529.529 0 1 1-.105 1.052m-1.562 15.67l-2.425-.241a.53.53 0 0 1-.474-.578l.489-4.898a.529.529 0 0 1 .579-.474l2.424.241c.29.03.503.288.474.578l-.488 4.898a.53.53 0 0 1-.58.473M13.276 2.181L10.82 26.807a.53.53 0 0 0 .474.58l3.79.376a.53.53 0 0 0 .579-.473l2.455-24.628a.529.529 0 0 0-.474-.578l-3.79-.376a.529.529 0 0 0-.579.473M3.817 7.124H1.34c-.3-.133-.543-.374-.543-.673 0-.3.243-.541.543-.752h2.477c.3.21.543.453.543.752s-.243.54-.543.673m-.796 15.674H1.967a.542.542 0 0 1-.542-.542v-11.74c0-.3.242-.542.54-.542H3.02c.3 0 .542.243.542.542v11.74c0 .3-.242.542-.541.542M.001 2.679v24.564c0 .3.242.542.54.542h3.904c.3 0 .542-.243.542-.542V2.679c0-.3-.243-.542-.541-.542H.542c-.3 0-.542.243-.542.542"/>
    </g>
</svg>
