<svg xmlns="http://www.w3.org/2000/svg" width="32" height="32" viewBox="0 0 32 32">
    <g fill="none" fill-rule="evenodd">
        <circle cx="16" cy="16" r="16" fill="#FFF"/>
        <path fill="#393939" d="M20.62 19.177l-.24.24-.9-.899a6.429 6.429 0 0 0 1.44-4.058A6.468 6.468 0 0 0 14.46 8 6.468 6.468 0 0 0 8 14.46a6.468 6.468 0 0 0 6.46 6.46 6.429 6.429 0 0 0 4.058-1.44l.9.9-.24.24 4.08 4.081 1.443-1.442-4.08-4.082zm-6.16-.297a4.425 4.425 0 0 1-4.42-4.42 4.425 4.425 0 0 1 4.42-4.42 4.425 4.425 0 0 1 4.42 4.42 4.426 4.426 0 0 1-4.42 4.42z"/>
    </g>
</svg>
