<svg xmlns="http://www.w3.org/2000/svg" width="70" height="70" viewBox="0 0 70 70">
    <g fill="#FFAF32" fill-rule="evenodd">
        <path d="M35.668 12.774c1.631 0 2.959 1.317 2.959 2.937 0 1.619-1.327 2.936-2.96 2.936-1.63 0-2.958-1.317-2.958-2.936 0-1.62 1.328-2.937 2.959-2.937zm0 7.788c2.695 0 4.888-2.177 4.888-4.851 0-2.675-2.193-4.852-4.888-4.852s-4.888 2.176-4.888 4.852c0 2.674 2.193 4.85 4.888 4.85z"/>
        <path d="M64.405 60.148H6.93v-3.66h57.474v3.66zm-53.06-7.631H59.99a3.04 3.04 0 0 1 2.88 2.057H8.465a3.04 3.04 0 0 1 2.88-2.057zm7.529-24.618h-6.677v-1.746h7.185v1.746h-.508zM13.67 45.666h4.24V29.814h-4.24v15.852zm5.204 1.914h.508v3.023h-7.185V47.58h6.677zm1.473-1.914h-.509V29.814h.509a.96.96 0 0 0 .964-.957v-2.704h2.21v2.704a.96.96 0 0 0 .964.957h.508v15.852h-.508a.96.96 0 0 0-.965.957v3.98h-2.209v-3.98a.96.96 0 0 0-.964-.957zm11.78-17.767h-6.678v-1.746h7.186v1.746h-.509zm-5.205 17.767h4.24V29.814h-4.24v15.852zm5.204 1.914h.509v3.023h-7.186V47.58h6.677zm1.473-1.914h-.508V29.814h.508a.96.96 0 0 0 .964-.957v-2.704h2.21v2.704a.96.96 0 0 0 .964.957h.508v15.852h-.508a.96.96 0 0 0-.964.957v3.98h-2.21v-3.98a.96.96 0 0 0-.964-.957zm11.78-17.767H38.7v-1.746h7.186v1.746h-.508zm-5.205 17.767h4.24V29.814h-4.24v15.852zm5.205 1.914h.508v3.023H38.7V47.58h6.678zm1.472-1.914h-.508V29.814h.508a.96.96 0 0 0 .965-.957v-2.704h2.209v2.704a.96.96 0 0 0 .964.957h.509v15.852h-.509a.96.96 0 0 0-.964.957v3.98h-2.21v-3.98a.96.96 0 0 0-.964-.957zm11.78-17.767h-6.678v-1.746h7.186v1.746h-.508zm-5.205 17.767h4.24V29.814h-4.24v15.852zm5.205 1.914h.508v3.023h-7.185V47.58h6.677zM11.233 24.238H7.3a.345.345 0 0 1-.35-.257.342.342 0 0 1 .143-.409L30.768 7.564a8.713 8.713 0 0 1 4.9-1.5c1.755 0 3.45.519 4.9 1.5l23.674 16.009a.342.342 0 0 1 .144.408.345.345 0 0 1-.351.258H11.233zm54.136 30.336h-.507a4.96 4.96 0 0 0-3.794-3.853v-4.098a.96.96 0 0 0-.964-.957h-.509V29.814h.509a.96.96 0 0 0 .964-.957v-2.704h2.967c1.03 0 1.89-.631 2.194-1.608a2.231 2.231 0 0 0-.901-2.555L41.654 5.982a10.646 10.646 0 0 0-5.986-1.832c-2.144 0-4.214.634-5.986 1.832L6.008 21.99a2.232 2.232 0 0 0-.901 2.555 2.255 2.255 0 0 0 2.194 1.608h2.967v2.704a.96.96 0 0 0 .965.957h.508v15.852h-.508a.96.96 0 0 0-.965.957v4.098a4.96 4.96 0 0 0-3.794 3.853h-.507a.96.96 0 0 0-.964.957v5.574a.96.96 0 0 0 .964.958H65.37a.96.96 0 0 0 .964-.958v-5.574a.96.96 0 0 0-.964-.957z"/>
    </g>
</svg>
